<svg width="36" height="36" viewBox="0 0 36 36" fill="none" xmlns="http://www.w3.org/2000/svg">
<g clip-path="url(#clip0_8303_3139)">
<path d="M34.8615 18.3376C35.5999 19.7149 35.9937 21.2566 36.0032 22.822C35.2125 24.1739 34.0978 25.3108 32.7711 26.1331C32.7237 24.5582 32.2967 23.0086 31.5283 21.625C32.8881 20.8091 34.0345 19.6801 34.8631 18.3376H34.8615ZM26.7229 32.4327C28.2867 32.3837 29.8205 31.952 31.1788 31.1757C31.9536 29.8158 32.3853 28.2836 32.4343 26.7213C31.0476 27.4708 29.4901 27.8756 27.9025 27.9025C27.8756 29.4869 27.4708 31.0444 26.7229 32.4327ZM18.3392 34.8599C19.7164 35.5984 21.2581 35.9921 22.8236 36.0016C24.1755 35.211 25.3124 34.0978 26.1347 32.7695C24.5613 32.7221 23.0117 32.2952 21.6266 31.5267C20.8106 32.8865 19.6816 34.0329 18.3392 34.8615V34.8599ZM14.3766 31.5251C12.9914 32.2936 11.4418 32.7221 9.86849 32.768C10.6923 34.0962 11.8292 35.2094 13.1796 36C14.745 35.9905 16.2883 35.5984 17.6656 34.8583C16.3215 34.0298 15.1925 32.885 14.3766 31.5235V31.5251ZM3.56885 26.7213C3.61787 28.2836 4.04955 29.8174 4.82435 31.1757C6.18263 31.952 7.71643 32.3837 9.28027 32.4327C8.53235 31.0444 8.12755 29.4885 8.10067 27.9025C6.51311 27.8756 4.95717 27.4708 3.56885 26.7213ZM1.14165 18.3376C0.401634 19.7149 0.00948742 21.2566 0 22.8188C0.789037 24.1708 1.90381 25.3093 3.23205 26.1331C3.27948 24.5582 3.70642 23.0086 4.4749 21.625C3.11503 20.8091 1.96864 19.6801 1.14007 18.3392L1.14165 18.3376ZM4.4749 14.3766C3.70642 12.993 3.2779 11.4434 3.23205 9.86849C1.90223 10.6923 0.789037 11.8308 0 13.1812C0.00948742 14.7434 0.401634 16.2867 1.14165 17.6656C1.96864 16.3231 3.11503 15.1941 4.47648 14.3782L4.4749 14.3766ZM9.28027 3.56727C7.71643 3.61629 6.18263 4.04796 4.82435 4.82435C4.04796 6.18263 3.61629 7.71643 3.56727 9.28027C4.95401 8.53077 6.51153 8.12597 8.09909 8.09909C8.12597 6.51153 8.53077 4.95559 9.28027 3.56727ZM17.6656 1.14165C16.2899 0.401634 14.7466 0.00948742 13.1812 0C11.8308 0.789037 10.6939 1.90223 9.87007 3.23047C11.445 3.2779 12.993 3.70484 14.3766 4.47332C15.1925 3.11187 16.3231 1.96548 17.6656 1.14007V1.14165ZM21.625 4.47332C23.0086 3.70484 24.5582 3.27632 26.1315 3.23047C25.3093 1.90223 24.1724 0.789037 22.822 0C21.2581 0.00948742 19.7149 0.401634 18.3376 1.14165C19.6785 1.96864 20.8075 3.11345 21.6234 4.4749L21.625 4.47332ZM32.4343 9.27869C32.3853 7.71485 31.9536 6.18105 31.1772 4.82277C29.8189 4.04638 28.2852 3.61471 26.7213 3.56569C27.4708 4.95243 27.8756 6.50995 27.9025 8.09751C29.4901 8.12439 31.046 8.52919 32.4343 9.27869ZM34.8615 17.664C35.5999 16.2867 35.9937 14.7419 36.0032 13.1764C35.2125 11.8261 34.0978 10.6892 32.7711 9.86691C32.7237 11.4418 32.2967 12.9914 31.5283 14.375C32.8897 15.1909 34.0345 16.3199 34.8631 17.6624L34.8615 17.664ZM26.7166 23.0339C27.4677 24.4222 27.874 25.9813 27.9009 27.5673C29.4948 27.5404 31.0571 27.1166 32.4359 26.3355C32.4217 24.7495 32.0074 23.1857 31.2342 21.7942C29.8458 22.5642 28.2931 22.9912 26.715 23.0354L26.7166 23.0339ZM23.0354 26.7166C22.9896 28.2931 22.5627 29.8458 21.7942 31.2326C23.1872 32.0058 24.7527 32.4201 26.3371 32.4343C27.1166 31.0539 27.5404 29.4932 27.5673 27.9009C25.9813 27.874 24.4238 27.4661 23.0354 26.7166ZM21.5032 31.0634C22.2717 29.6719 22.6844 28.1096 22.7002 26.5284C21.3973 25.7583 20.2873 24.6973 19.4555 23.4339C19.367 24.9424 18.9353 26.4161 18.1937 27.7317C18.997 29.0947 20.1355 30.2411 21.5016 31.0634H21.5032ZM13.3014 26.5284C13.3172 28.1112 13.7299 29.6719 14.4984 31.0634C15.8645 30.2411 17.003 29.0947 17.8063 27.7317C17.0647 26.4146 16.633 24.9408 16.5445 23.4339C15.7143 24.6973 14.6027 25.7583 13.2998 26.5284H13.3014ZM12.9677 26.7166C11.5794 27.4677 10.0235 27.874 8.43589 27.9009C8.46277 29.4932 8.88655 31.0539 9.6661 32.4343C11.2505 32.4201 12.8143 32.0058 14.209 31.2326C13.4405 29.8458 13.0136 28.2931 12.9677 26.7166ZM9.28502 23.0339C7.70694 22.9896 6.15417 22.5627 4.76585 21.7926C3.99262 23.1857 3.57834 24.7495 3.56411 26.3355C4.94294 27.115 6.50521 27.5388 8.09909 27.5673C8.12597 25.9813 8.53393 24.4238 9.28344 23.0339H9.28502ZM9.28502 12.9677C8.53393 11.5794 8.12755 10.0219 8.10067 8.43431C6.50679 8.46119 4.94452 8.88497 3.56569 9.6661C3.57992 11.2521 3.9942 12.8159 4.76743 14.209C6.15575 13.4389 7.70694 13.012 9.28502 12.9677ZM12.9677 9.28344C13.012 7.70536 13.4389 6.15259 14.209 4.76585C12.8175 3.99262 11.2521 3.57834 9.66768 3.56411C8.88813 4.94294 8.46277 6.50521 8.43589 8.09909C10.0219 8.12597 11.5794 8.53393 12.9677 9.28344ZM16.5445 12.5661C16.6314 11.0607 17.0631 9.58703 17.8063 8.2667C17.003 6.90368 15.863 5.75728 14.4984 4.93504C13.7283 6.32653 13.3156 7.88879 13.3014 9.4716C14.6059 10.2417 15.7159 11.3027 16.5461 12.5645L16.5445 12.5661ZM22.7018 9.47319C22.6876 7.89037 22.2749 6.32811 21.5048 4.93662C20.1386 5.75886 18.9986 6.90526 18.1969 8.26828C18.94 9.58862 19.3717 11.0623 19.4587 12.5677C20.2873 11.3058 21.3989 10.2448 22.7034 9.47477L22.7018 9.47319ZM23.0354 9.28344C24.4222 8.53235 25.9797 8.12597 27.5673 8.09909C27.5404 6.50521 27.115 4.94294 26.3355 3.56411C24.7511 3.57834 23.1872 3.99262 21.7942 4.76585C22.5642 6.15417 22.9912 7.70694 23.0354 9.28344ZM26.7166 12.9677C28.2946 13.012 29.8474 13.4389 31.2342 14.209C32.0074 12.8159 32.4217 11.2521 32.4359 9.6661C31.0571 8.88655 29.4948 8.46278 27.9009 8.43431C27.874 10.0219 27.4661 11.5794 26.7166 12.9677ZM27.5657 27.5657C27.5372 25.975 27.1135 24.4159 26.3339 23.0354C24.8207 23.0181 23.3296 22.6544 21.9792 21.9776C22.6575 23.328 23.0212 24.8207 23.037 26.3339C24.4143 27.1135 25.975 27.5372 27.5657 27.5657ZM12.9646 26.3339C12.9819 24.8207 13.3456 23.328 14.024 21.9776C12.6736 22.656 11.1809 23.0196 9.66926 23.037C8.88971 24.4159 8.46594 25.9765 8.43748 27.5673C10.0282 27.5388 11.5889 27.115 12.9661 26.3355L12.9646 26.3339ZM12.9646 9.6661C11.5873 8.88655 10.0266 8.46278 8.43589 8.43431C8.46436 10.0266 8.88813 11.5857 9.66768 12.9646C11.1825 12.9819 12.6752 13.3441 14.0224 14.0224C13.3441 12.672 12.9804 11.1793 12.9646 9.6661ZM23.037 9.6661C23.0196 11.1793 22.6575 12.672 21.9792 14.0224C23.3264 13.3441 24.8191 12.9804 26.3339 12.9646C27.1135 11.5873 27.5372 10.0266 27.5657 8.43431C25.975 8.46278 24.4143 8.88655 23.037 9.6661ZM8.2667 17.8047C9.58387 17.0631 11.0592 16.6314 12.5661 16.5429C11.3027 15.7127 10.2432 14.6027 9.47318 13.2998C7.89037 13.314 6.32811 13.7267 4.93662 14.4984C5.7557 15.8614 6.90051 16.9999 8.2667 17.8047ZM12.5661 19.4555C11.0607 19.3686 9.58545 18.9369 8.2667 18.1937C6.90209 18.9986 5.7557 20.1386 4.93662 21.5016C6.32811 22.2717 7.89037 22.6844 9.47318 22.7002C10.2417 21.3989 11.3027 20.2873 12.5661 19.4555ZM27.7349 18.1937C26.4145 18.9369 24.9408 19.3686 23.4355 19.4555C24.6973 20.2857 25.7583 21.3973 26.5284 22.7002C28.1112 22.686 29.6735 22.2733 31.065 21.5016C30.2459 20.137 29.0995 18.9986 27.7349 18.1937ZM23.4355 16.5429C24.944 16.6314 26.4177 17.0631 27.7349 17.8047C29.1011 16.9999 30.2459 15.8614 31.065 14.4984C29.6735 13.7283 28.1112 13.3156 26.5284 13.2998C25.7583 14.6027 24.6989 15.7143 23.4355 16.5429ZM1.33298 18.0008C2.13783 19.3638 3.27948 20.5102 4.64409 21.3309C5.46001 19.971 6.59059 18.8262 7.93464 17.9992C6.59059 17.1722 5.46001 16.0274 4.64409 14.6691C3.2779 15.4898 2.13783 16.6362 1.33298 18.0008ZM19.1377 22.9153C18.6934 22.1405 18.3597 21.3056 18.1399 20.4406C18.2538 20.4343 18.3661 20.4217 18.4767 20.4011C18.6317 20.9988 18.842 21.5823 19.1092 22.1389C19.0618 21.5222 18.9527 20.9118 18.7882 20.3157C18.8958 20.2794 19.0001 20.2351 19.0997 20.1845C19.3417 21.0415 19.4698 21.9286 19.4729 22.822C20.262 24.1708 21.372 25.3045 22.6971 26.1268C22.6465 24.5708 22.2148 23.0418 21.4431 21.6867C20.6699 21.2376 19.9663 20.6826 19.3448 20.0437C19.4397 19.9805 19.5298 19.9109 19.6152 19.8366C20.0453 20.2746 20.5165 20.6715 21.0241 21.0194C20.6762 20.5118 20.2794 20.0422 19.8413 19.6121C19.9157 19.5267 19.9852 19.4381 20.0485 19.3433C20.6873 19.9647 21.2407 20.6683 21.6914 21.4416C23.0465 22.2132 24.574 22.6449 26.1299 22.6955C25.3093 21.372 24.1755 20.2604 22.8267 19.4729C21.9317 19.4698 21.0447 19.3417 20.1876 19.0998C20.2382 18.9986 20.2825 18.8958 20.3189 18.7867C20.9134 18.9511 21.5238 19.0602 22.1405 19.1077C21.5839 18.8404 21.002 18.6301 20.4027 18.4752C20.4248 18.3661 20.4359 18.2538 20.4422 18.1384C21.3072 18.3582 22.1405 18.6902 22.9169 19.1361C24.476 19.1282 26.0177 18.7361 27.3933 17.9992C26.0192 17.2639 24.4791 16.8718 22.9169 16.8623C22.1405 17.3082 21.3072 17.6403 20.4422 17.8601C20.4359 17.7462 20.4232 17.6339 20.4027 17.5233C21.0004 17.3683 21.5839 17.158 22.142 16.8892C21.5254 16.9366 20.9134 17.0457 20.3189 17.2102C20.2825 17.1026 20.2382 16.9983 20.1876 16.8987C21.0447 16.6567 21.9317 16.5287 22.8267 16.5239C24.1739 15.7365 25.3077 14.6264 26.1299 13.3029C24.5708 13.3535 23.0449 13.7852 21.6914 14.5584C21.2407 15.3301 20.6873 16.0353 20.0485 16.6552C19.9852 16.5603 19.9157 16.4702 19.8413 16.3863C20.2794 15.9563 20.6778 15.485 21.0257 14.9775C20.5181 15.3253 20.0469 15.7222 19.6152 16.1602C19.5298 16.0859 19.4397 16.0163 19.3448 15.9531C19.9663 15.3143 20.6715 14.7593 21.4447 14.3118C22.2164 12.9566 22.648 11.4276 22.6986 9.87166C21.3736 10.6939 20.262 11.8292 19.4745 13.1764C19.4713 14.0698 19.3417 14.9569 19.0997 15.8139C19.0001 15.7633 18.8958 15.7191 18.7882 15.6827C18.9543 15.0882 19.0618 14.4778 19.1092 13.8611C18.842 14.4177 18.6317 15.0012 18.4767 15.5989C18.3676 15.5768 18.2554 15.5657 18.1399 15.5594C18.3597 14.6944 18.6918 13.8611 19.1377 13.0847C19.1298 11.5256 18.7376 9.98392 18.0008 8.60825C17.2639 9.98551 16.8718 11.5256 16.8639 13.0847C17.3082 13.8611 17.6418 14.6944 17.8616 15.5594C17.7478 15.5657 17.6355 15.5783 17.5248 15.5989C17.3699 15.0012 17.1596 14.4193 16.8923 13.8611C16.9398 14.4778 17.0489 15.0882 17.2133 15.6827C17.1058 15.7191 17.0014 15.7633 16.9018 15.8139C16.6599 14.9569 16.5318 14.0698 16.5271 13.1749C15.7396 11.8276 14.6296 10.6939 13.3029 9.87008C13.3535 11.426 13.7852 12.9551 14.5569 14.3102C15.3301 14.7593 16.0353 15.3143 16.6567 15.9531C16.5619 16.0163 16.4717 16.0859 16.3863 16.1602C15.9547 15.7206 15.4835 15.3238 14.9759 14.9759C15.3238 15.4835 15.7222 15.9547 16.1602 16.3863C16.0859 16.4717 16.0163 16.5603 15.9531 16.6567C15.3143 16.0353 14.7593 15.3317 14.3102 14.5584C12.9566 13.7868 11.4292 13.3551 9.87166 13.3045C10.6923 14.628 11.8261 15.738 13.1749 16.5255C14.0698 16.5287 14.9585 16.6583 15.8155 16.9003C15.7649 16.9999 15.7206 17.1042 15.6843 17.2118C15.0882 17.0457 14.4778 16.9366 13.8611 16.8892C14.4193 17.1564 15.0012 17.3667 15.5989 17.5217C15.5768 17.6308 15.5657 17.7431 15.5594 17.8585C14.6944 17.6387 13.8611 17.3066 13.0831 16.8607C11.5209 16.8702 9.98076 17.2624 8.60667 17.9976C9.98392 18.7345 11.524 19.1266 13.0831 19.1345C13.8611 18.6902 14.6944 18.3566 15.5594 18.1368C15.5657 18.2506 15.5783 18.3629 15.5989 18.4736C15.0012 18.6285 14.4177 18.8388 13.8595 19.1077C14.4778 19.0602 15.0882 18.9511 15.6843 18.7867C15.7206 18.8942 15.7649 18.9986 15.8155 19.0982C14.9585 19.3401 14.0698 19.4682 13.1749 19.4713C11.8261 20.2604 10.6939 21.372 9.87324 22.6939C11.4292 22.6433 12.9566 22.2116 14.3118 21.4384C14.7624 20.6668 15.3174 19.9615 15.9547 19.3401C16.0179 19.435 16.0875 19.5251 16.1618 19.6105C15.7238 20.0406 15.3253 20.5118 14.9775 21.0194C15.485 20.6715 15.9563 20.2746 16.3863 19.8366C16.4717 19.9109 16.5603 19.9805 16.6552 20.0437C16.0337 20.6826 15.3285 21.2376 14.5569 21.6867C13.7852 23.0418 13.3535 24.5708 13.3029 26.1268C14.6264 25.3045 15.738 24.1708 16.5271 22.822C16.5302 21.927 16.6599 21.0399 16.9018 20.1829C17.0014 20.2335 17.1058 20.2778 17.2133 20.3141C17.0489 20.9103 16.9398 21.5206 16.8923 22.1373C17.1596 21.5807 17.3715 20.9972 17.5248 20.3995C17.6339 20.4217 17.7462 20.4327 17.8616 20.4391C17.6418 21.304 17.3098 22.1373 16.8639 22.9137C16.8734 24.476 17.2655 26.0161 18.0008 27.3886C18.7361 26.0161 19.1282 24.476 19.1377 22.9137V22.9153ZM34.6686 18.0008C33.8637 16.6362 32.7237 15.4898 31.3575 14.6691C30.5416 16.0274 29.411 17.1722 28.0669 17.9992C29.411 18.8262 30.5416 19.971 31.3575 21.3309C32.7221 20.5102 33.8637 19.3654 34.6686 18.0008ZM14.6691 4.64409C16.0306 5.46159 17.1754 6.59375 18.0008 7.93622C18.8262 6.59375 19.971 5.46317 21.3325 4.64409C20.5118 3.2779 19.3654 2.13783 18.0024 1.33456C16.6378 2.13625 15.4914 3.2779 14.6691 4.64409ZM21.3325 31.3559C19.971 30.5368 18.8262 29.4062 18.0008 28.0638C17.1754 29.4062 16.0306 30.5368 14.6691 31.3559C15.4882 32.7205 16.6362 33.8622 18.0024 34.667C19.3654 33.8622 20.5118 32.7205 21.3325 31.3559Z" fill="url(#paint0_radial_8303_3139)"/>
</g>
<defs>
<radialGradient id="paint0_radial_8303_3139" cx="0" cy="0" r="1" gradientUnits="userSpaceOnUse" gradientTransform="translate(17.6687 17.8) scale(17.8142 17.8142)">
<stop stop-color="white"/>
<stop offset="0.1" stop-color="white"/>
<stop offset="0.5" stop-color="#FCD71A"/>
<stop offset="1" stop-color="#F5861F"/>
</radialGradient>
<clipPath id="clip0_8303_3139">
<rect width="36.0016" height="36" fill="white"/>
</clipPath>
</defs>
</svg>
