<svg width="271" height="80" viewBox="0 0 271 80" fill="none" xmlns="http://www.w3.org/2000/svg">
<g clip-path="url(#clip0_8306_3142)">
<path d="M183.428 21.3175C183.504 18.8658 182.65 18.2181 182.137 17.7219C180.648 16.2836 176.51 15.0052 175.379 15.8841C173.066 17.6798 172.709 21.5068 172.032 26.0066C171.956 26.5113 171.922 28.0378 171.922 28.5467C171.905 32.5124 171.792 35.4436 172.12 38.5262C172.292 40.1327 173.356 44.9016 175.867 46.1506C178.218 47.3197 180.455 45.4399 180.438 42.4288C180.409 37.5379 181.141 32.4325 182.007 27.6131" fill="black"/>
<path d="M0 0.0878906H8.76833V18.6633H28.3194V0.0878906H37.0877V46.5958H28.3194V26.9817H8.76833V46.5958H0V0.0878906Z" fill="black"/>
<path d="M103.382 0H113.387L130.86 46.5079H121.184L117.353 35.4014H99.4248L95.5937 46.5079H85.917L103.382 0ZM114.493 27.3437L110.338 15.7157L108.647 10.0636H108.126L106.435 15.7157L102.28 27.3437H114.493Z" fill="black"/>
<path d="M192.983 0.0878906H203.182L221.887 31.267H222.409L221.887 22.3052V0.0878906H230.593V46.5958H221.37L201.626 13.663H201.104L201.626 22.6248V46.5916H192.988V0.0878906H192.983Z" fill="black"/>
<path d="M232.952 0H241.72V18.5754H261.271V0H270.039V46.5079H261.271V26.8938H241.72V46.5079H232.952V0Z" fill="black"/>
<path d="M141.357 0.0253906H150.126V38.2192H169.807V46.5333H141.357V0.0253906Z" fill="black"/>
<path d="M39.3418 23.307C39.3418 10.2954 49.3633 0.0214844 62.6273 0.0214844C75.8912 0.0214844 85.9128 10.2954 85.9128 23.307C85.9128 36.3186 75.887 46.5925 62.6273 46.5925C49.3676 46.5925 39.3418 36.3186 39.3418 23.307ZM77.5061 23.307C77.5061 14.156 70.9078 7.99078 62.6231 7.99078C54.3384 7.99078 47.74 14.156 47.74 23.307C47.74 32.458 54.3384 38.6232 62.6231 38.6232C70.9078 38.6232 77.5061 32.458 77.5061 23.307Z" fill="black"/>
<path d="M83.9235 79.9999C81.9175 79.9999 80.2689 79.3438 78.9737 78.0359C77.6784 76.728 77.0308 75.0711 77.0308 73.0651V72.8044H79.8989C79.9535 75.8785 81.2951 77.4135 83.9277 77.4135C86.7201 77.4135 88.1163 76.072 88.1163 73.3847C88.1163 72.0768 87.5738 71.0339 86.493 70.2601C86.064 69.9531 85.5047 69.6503 84.8108 69.3601L82.9058 68.62C82.1025 68.313 81.4633 68.0396 80.9797 67.7999C80.311 67.4509 79.7559 67.0766 79.3143 66.6771C78.2335 65.6888 77.691 64.3515 77.691 62.6693C77.691 60.8399 78.3008 59.3428 79.5162 58.1779C80.7189 57.0172 82.2413 56.4326 84.0875 56.4326C85.8117 56.4326 87.2626 57.0214 88.4359 58.1947C89.6092 59.368 90.198 60.8189 90.198 62.5431H87.3299C87.1827 60.1923 86.0598 59.0148 83.9613 59.0148C81.6904 59.0148 80.5549 60.1376 80.5549 62.3833C80.5549 63.5062 81.0974 64.4019 82.1782 65.0706C82.5903 65.3229 83.1539 65.5836 83.8604 65.8528L84.323 66.0336C84.4281 66.0757 84.5921 66.1346 84.8024 66.2145L85.7655 66.5761C86.5393 66.8831 87.1827 67.1775 87.6915 67.4593C88.3602 67.8209 88.9153 68.2289 89.3569 68.6831C90.4377 69.7933 90.9802 71.282 90.9802 73.1534C90.9802 77.7247 88.6294 80.0083 83.9235 80.0083V79.9999Z" fill="black"/>
<path d="M100.119 59.5952V79.4575H97.2506V59.5952H92.5195V57.0089H97.2506V49.0732H100.119V57.0089H105.489V59.5952H100.119Z" fill="black"/>
<path d="M125.351 79.4574V75.9711H125.271C124.645 77.2958 123.648 78.3093 122.285 79.0158C121.041 79.6719 119.64 79.9999 118.076 79.9999C114.707 79.9999 112.138 78.8771 110.359 76.6314C109.623 75.6977 109.097 74.5539 108.773 73.2039C108.521 72.1105 108.391 70.8405 108.391 69.3938V57.0088H111.259V69.3559C111.259 71.8666 111.751 73.7927 112.743 75.13C113.879 76.6524 115.658 77.4136 118.076 77.4136C119.972 77.4136 121.562 76.8038 122.845 75.5884C123.753 74.7179 124.388 73.6918 124.75 72.5016C125.044 71.5512 125.191 70.3442 125.191 68.8723V57.0088H128.059V79.4574H125.355H125.351Z" fill="black"/>
<path d="M153.292 79.4575V75.5086H153.212C151.206 78.5029 148.296 80 144.473 80C141.092 80 138.241 78.873 135.915 76.6146C133.577 74.3563 132.408 71.5429 132.408 68.1743C132.408 64.8058 133.589 62.0344 135.957 59.7761C138.295 57.543 141.134 56.4285 144.473 56.4285C148.283 56.4285 151.193 57.9047 153.212 60.8569H153.292V49.0732H156.177V79.4575H153.292ZM150.886 61.761C149.137 59.9317 146.996 59.0149 144.473 59.0149C141.815 59.0149 139.616 59.898 137.879 61.6601C136.142 63.4222 135.272 65.6342 135.272 68.2963C135.272 70.9583 136.146 73.0947 137.896 74.8315C139.645 76.5558 141.836 77.4179 144.469 77.4179C147.102 77.4179 149.133 76.5179 150.882 74.7138C152.606 72.9391 153.469 70.7859 153.469 68.2584C153.469 65.731 152.606 63.5694 150.882 61.7652L150.886 61.761Z" fill="black"/>
<path d="M161.589 54.2627V49.0732H164.457V54.2627H161.589ZM161.589 79.4575V57.0089H164.457V79.4575H161.589Z" fill="black"/>
<path d="M188.849 76.5142C186.536 78.8398 183.773 80.0005 180.552 80.0005C177.331 80.0005 174.647 78.8524 172.334 76.552C170.009 74.2559 168.848 71.5265 168.848 68.3724C168.848 65.2184 169.984 62.3124 172.255 59.9742C174.538 57.6107 177.305 56.4248 180.552 56.4248C183.798 56.4248 186.507 57.5855 188.828 59.9111C191.154 62.2367 192.314 65.0039 192.314 68.2084C192.314 71.413 191.158 74.1928 188.845 76.5058L188.849 76.5142ZM186.864 61.7194C185.127 59.9153 183.037 59.0154 180.59 59.0154C178.142 59.0154 175.96 59.949 174.235 61.8204C172.553 63.6371 171.712 65.8071 171.712 68.3346C171.712 70.8621 172.574 72.9185 174.298 74.71C176.035 76.5142 178.134 77.4141 180.59 77.4141C183.046 77.4141 185.254 76.4931 186.965 74.647C188.622 72.8428 189.451 70.6602 189.451 68.0949C189.451 65.5296 188.588 63.511 186.864 61.7194Z" fill="black"/>
<path d="M190.944 8.04054C191.259 8.6293 191.431 9.29376 191.431 9.96663C191.091 10.547 190.616 11.0348 190.044 11.3881C190.023 10.711 189.842 10.0465 189.51 9.45357C190.094 9.10452 190.586 8.61669 190.939 8.04475L190.944 8.04054ZM187.453 14.088C188.126 14.0669 188.782 13.8819 189.367 13.5497C189.699 12.9651 189.884 12.3091 189.905 11.6362C189.308 11.9558 188.643 12.1324 187.962 12.145C187.949 12.8263 187.777 13.495 187.457 14.088H187.453ZM183.857 15.1267C184.446 15.4421 185.111 15.6145 185.784 15.6145C186.364 15.2739 186.852 14.7987 187.205 14.2267C186.528 14.2057 185.863 14.0249 185.27 13.6926C184.921 14.2772 184.434 14.7692 183.862 15.1225L183.857 15.1267ZM182.154 13.6969C181.561 14.0249 180.897 14.2099 180.22 14.2309C180.573 14.7987 181.061 15.2781 181.641 15.6187C182.314 15.6187 182.974 15.4463 183.567 15.1309C182.991 14.7776 182.507 14.2856 182.154 13.7011V13.6969ZM177.516 11.6362C177.537 12.3049 177.722 12.9651 178.054 13.5497C178.638 13.8819 179.295 14.0669 179.967 14.088C179.648 13.4908 179.471 12.8221 179.463 12.145C178.781 12.1324 178.113 11.96 177.52 11.6362H177.516ZM176.477 8.04054C176.161 8.63351 175.989 9.29376 175.989 9.96243C176.33 10.5428 176.805 11.0306 177.377 11.3839C177.398 10.7068 177.579 10.0423 177.911 9.44936C177.326 9.10031 176.834 8.61669 176.481 8.04054H176.477ZM177.907 6.33734C177.579 5.74438 177.394 5.07992 177.373 4.40284C176.801 4.7561 176.326 5.24393 175.985 5.82428C175.985 6.49294 176.157 7.1574 176.473 7.75037C176.826 7.17422 177.318 6.6906 177.903 6.34155L177.907 6.33734ZM179.967 1.69875C179.295 1.71977 178.638 1.90481 178.054 2.23704C177.722 2.8216 177.537 3.47765 177.516 4.15052C178.113 3.8309 178.777 3.65427 179.459 3.64166C179.471 2.96038 179.644 2.29171 179.967 1.69875ZM183.567 0.660005C182.979 0.344597 182.314 0.17638 181.641 0.172174C181.061 0.512814 180.573 0.988029 180.22 1.55997C180.897 1.58099 181.561 1.76183 182.154 2.09406C182.503 1.5095 182.991 1.01747 183.567 0.66421V0.660005ZM185.266 2.08985C185.859 1.76183 186.524 1.57679 187.201 1.55576C186.848 0.988029 186.36 0.508609 185.779 0.167969C185.106 0.167969 184.446 0.340392 183.853 0.655799C184.429 1.00906 184.913 1.50109 185.262 2.08565L185.266 2.08985ZM189.905 4.15052C189.884 3.47765 189.699 2.8216 189.367 2.23704C188.782 1.90481 188.126 1.71977 187.453 1.69875C187.773 2.29592 187.949 2.96038 187.962 3.64166C188.643 3.65427 189.312 3.8267 189.905 4.14631V4.15052ZM190.944 7.75037C191.259 7.1574 191.431 6.49715 191.431 5.82428C191.091 5.24393 190.616 4.7561 190.044 4.40284C190.023 5.07992 189.842 5.74438 189.51 6.33734C190.094 6.68639 190.586 7.17422 190.939 7.74616L190.944 7.75037ZM187.449 10.0549C187.773 10.6521 187.945 11.3208 187.958 11.9979C188.643 11.9852 189.312 11.8044 189.905 11.468C189.896 10.7867 189.72 10.118 189.388 9.52086C188.79 9.85309 188.126 10.0339 187.449 10.0549ZM185.872 11.6362C185.851 12.3133 185.67 12.9777 185.338 13.5749C185.935 13.9071 186.608 14.0838 187.285 14.0922C187.621 13.4992 187.802 12.8305 187.815 12.145C187.133 12.1324 186.465 11.96 185.872 11.6362ZM185.216 13.4992C185.544 12.902 185.725 12.2334 185.729 11.5521C185.17 11.2199 184.694 10.7657 184.337 10.2232C184.299 10.8708 184.114 11.5016 183.794 12.0694C184.139 12.6539 184.627 13.1459 185.216 13.4992ZM181.692 11.5521C181.7 12.2292 181.877 12.902 182.205 13.4992C182.789 13.1459 183.281 12.6539 183.626 12.0694C183.307 11.5058 183.121 10.8708 183.084 10.2232C182.726 10.7657 182.251 11.2199 181.692 11.5521ZM181.549 11.6362C180.951 11.96 180.287 12.1324 179.606 12.145C179.618 12.8263 179.799 13.4992 180.136 14.0922C180.817 14.0838 181.486 13.9071 182.083 13.5749C181.755 12.9777 181.57 12.3133 181.549 11.6362ZM179.972 10.0549C179.295 10.0339 178.63 9.85309 178.033 9.52086C177.701 10.118 177.524 10.7909 177.516 11.468C178.109 11.8044 178.777 11.9852 179.463 11.9979C179.475 11.3166 179.648 10.6479 179.972 10.0549ZM179.972 5.73597C179.648 5.13879 179.475 4.47013 179.463 3.79305C178.777 3.80567 178.109 3.9865 177.516 4.32294C177.524 5.00422 177.701 5.67288 178.033 6.27006C178.63 5.93783 179.295 5.75699 179.972 5.73597ZM181.549 4.15472C181.57 3.47765 181.751 2.81319 182.083 2.21602C181.486 1.88379 180.813 1.70716 180.136 1.69875C179.799 2.29171 179.618 2.96038 179.606 3.64586C180.287 3.65848 180.956 3.8309 181.549 4.15472ZM183.084 5.56354C183.121 4.91591 183.307 4.28509 183.626 3.71736C183.281 3.1328 182.793 2.64076 182.205 2.28751C181.872 2.88468 181.696 3.55334 181.692 4.23462C182.251 4.56685 182.726 5.02104 183.084 5.56354ZM185.729 4.23462C185.725 3.55334 185.544 2.88468 185.216 2.28751C184.631 2.64076 184.139 3.1328 183.794 3.71736C184.114 4.28509 184.299 4.91591 184.337 5.56354C184.694 5.02104 185.17 4.56685 185.729 4.23462ZM185.872 4.15472C186.469 3.8309 187.133 3.65848 187.815 3.64586C187.802 2.96038 187.621 2.29171 187.285 1.69875C186.604 1.70716 185.935 1.88379 185.338 2.21602C185.67 2.81319 185.851 3.47765 185.872 4.15472ZM187.449 5.73597C188.126 5.75699 188.79 5.93783 189.388 6.27006C189.72 5.67288 189.896 5.00001 189.905 4.32294C189.312 3.9865 188.643 3.80567 187.958 3.79305C187.945 4.47433 187.773 5.143 187.449 5.73597ZM187.815 11.9979C187.802 11.3166 187.621 10.6479 187.285 10.0549C186.637 10.0465 185.994 9.89094 185.418 9.60076C185.708 10.1811 185.863 10.8203 185.872 11.4722C186.465 11.8086 187.133 11.9894 187.815 12.0021V11.9979ZM181.549 11.4722C181.557 10.8245 181.713 10.1811 182.003 9.60076C181.422 9.89094 180.783 10.0465 180.136 10.0549C179.799 10.6479 179.618 11.3166 179.606 11.9979C180.287 11.9852 180.956 11.8044 181.549 11.468V11.4722ZM181.549 4.31873C180.956 3.9823 180.287 3.80147 179.606 3.78885C179.618 4.47013 179.799 5.143 180.136 5.73176C180.787 5.74017 181.427 5.89577 182.003 6.18595C181.713 5.6056 181.557 4.96637 181.549 4.31873ZM185.872 4.31873C185.863 4.96637 185.708 5.6098 185.418 6.18595C185.998 5.89577 186.637 5.74017 187.285 5.73176C187.621 5.13879 187.802 4.47013 187.815 3.78885C187.133 3.80147 186.465 3.9823 185.872 4.31873ZM179.534 7.80924C180.098 7.48963 180.733 7.30459 181.38 7.26674C180.838 6.90928 180.384 6.43407 180.052 5.87474C179.37 5.87895 178.702 6.05978 178.104 6.38781C178.458 6.97236 178.945 7.46019 179.534 7.80504V7.80924ZM181.38 8.51996C180.733 8.48211 180.102 8.29707 179.534 7.97746C178.95 8.32231 178.458 8.81014 178.104 9.3989C178.702 9.73113 179.37 9.90776 180.052 9.91196C180.38 9.35264 180.838 8.87743 181.38 8.51996ZM187.886 7.97746C187.319 8.29707 186.688 8.48211 186.04 8.51996C186.583 8.87743 187.037 9.35264 187.369 9.91196C188.05 9.90776 188.719 9.72692 189.316 9.3989C188.963 8.81434 188.471 8.32651 187.886 7.97746ZM186.044 7.27095C186.692 7.3088 187.323 7.49384 187.89 7.81345C188.475 7.4686 188.967 6.98077 189.32 6.39622C188.723 6.06399 188.054 5.88736 187.373 5.88316C187.041 6.44248 186.587 6.91769 186.044 7.27515V7.27095ZM176.557 7.89335C176.902 8.47791 177.394 8.96994 177.978 9.3232C178.327 8.73865 178.815 8.24661 179.391 7.89335C178.815 7.5401 178.327 7.04806 177.978 6.46351C177.394 6.81676 176.902 7.3088 176.557 7.89335ZM184.198 10.0045C184.009 9.67225 183.866 9.31479 183.769 8.94471C183.82 8.94471 183.866 8.9363 183.912 8.92789C183.979 9.18442 184.068 9.43675 184.185 9.67225C184.164 9.40731 184.118 9.14657 184.047 8.89004C184.093 8.87322 184.139 8.8564 184.181 8.83537C184.286 9.20124 184.341 9.58394 184.341 9.96663C184.677 10.547 185.157 11.0306 185.725 11.3839C185.704 10.7152 185.519 10.0592 185.186 9.4788C184.854 9.28535 184.551 9.04985 184.286 8.77229C184.328 8.74706 184.366 8.71762 184.404 8.68398C184.589 8.87322 184.791 9.04144 185.01 9.19283C184.863 8.97415 184.69 8.77229 184.501 8.58725C184.535 8.5494 184.564 8.51155 184.589 8.4695C184.863 8.73444 185.102 9.03723 185.296 9.36946C185.876 9.70169 186.532 9.88673 187.201 9.90776C186.848 9.34002 186.364 8.86481 185.784 8.52417C185.401 8.52417 185.018 8.4695 184.652 8.36436C184.673 8.32231 184.694 8.27605 184.707 8.22979C184.963 8.30128 185.224 8.34754 185.489 8.36857C185.249 8.25502 185.001 8.1625 184.745 8.09521C184.753 8.04895 184.757 7.99849 184.762 7.95223C185.132 8.04475 185.489 8.18773 185.821 8.38118C186.49 8.38118 187.15 8.20876 187.743 7.89335C187.154 7.57795 186.494 7.40973 185.821 7.40552C185.489 7.59477 185.132 7.73775 184.762 7.83448C184.762 7.78401 184.753 7.73775 184.745 7.69149C185.001 7.62421 185.254 7.53589 185.489 7.41814C185.224 7.43917 184.963 7.48543 184.707 7.55692C184.69 7.51066 184.673 7.4644 184.652 7.42234C185.018 7.31721 185.401 7.26254 185.784 7.26254C186.36 6.9261 186.848 6.44668 187.201 5.87895C186.532 5.89998 185.876 6.08502 185.296 6.41725C185.102 6.74948 184.863 7.05227 184.589 7.31721C184.564 7.27515 184.53 7.23731 184.501 7.19946C184.69 7.01442 184.858 6.81256 185.01 6.59387C184.791 6.74106 184.589 6.91349 184.404 7.10273C184.366 7.06909 184.328 7.03965 184.286 7.01442C184.551 6.74106 184.854 6.50135 185.186 6.3079C185.519 5.72755 185.704 5.07151 185.725 4.40284C185.157 4.7561 184.677 5.24393 184.341 5.82007C184.341 6.20277 184.286 6.58546 184.181 6.95134C184.139 6.93031 184.093 6.90928 184.047 6.89667C184.118 6.64013 184.164 6.3794 184.185 6.11445C184.072 6.35416 183.979 6.60228 183.912 6.85882C183.866 6.85041 183.815 6.8462 183.769 6.84199C183.862 6.47192 184.005 6.11445 184.198 5.78222C184.198 5.11356 184.026 4.45331 183.71 3.86034C183.395 4.4491 183.227 5.11356 183.222 5.78222C183.412 6.11445 183.555 6.47192 183.651 6.84199C183.601 6.84199 183.555 6.85041 183.508 6.85882C183.441 6.60228 183.353 6.35416 183.235 6.11445C183.256 6.3794 183.302 6.64013 183.374 6.89667C183.328 6.91349 183.281 6.93031 183.239 6.95134C183.134 6.58546 183.079 6.20277 183.079 5.82007C182.743 5.24393 182.264 4.7561 181.696 4.40284C181.717 5.07151 181.902 5.72755 182.234 6.3079C182.566 6.50135 182.869 6.73686 183.134 7.01442C183.092 7.03965 183.054 7.06909 183.016 7.10273C182.831 6.91349 182.629 6.74527 182.411 6.59387C182.562 6.81256 182.73 7.01442 182.92 7.19946C182.886 7.23731 182.857 7.27515 182.831 7.31721C182.558 7.05227 182.318 6.74948 182.125 6.41725C181.544 6.08502 180.888 5.89998 180.22 5.87895C180.573 6.44668 181.057 6.9219 181.637 7.26254C182.02 7.26254 182.402 7.32141 182.768 7.42234C182.747 7.4644 182.726 7.51066 182.714 7.55692C182.457 7.48543 182.196 7.43917 181.931 7.41814C182.171 7.53169 182.419 7.62421 182.676 7.69149C182.667 7.73775 182.663 7.78822 182.659 7.83448C182.289 7.74196 181.931 7.59897 181.595 7.40552C180.926 7.40552 180.262 7.57795 179.673 7.89335C180.262 8.20876 180.926 8.37698 181.595 8.38118C181.927 8.19194 182.285 8.04895 182.659 7.95223C182.659 8.00269 182.667 8.04895 182.676 8.09521C182.419 8.1625 182.167 8.25082 181.927 8.36857C182.192 8.34754 182.453 8.30128 182.709 8.22979C182.726 8.27605 182.743 8.32231 182.764 8.36436C182.394 8.4695 182.015 8.52417 181.633 8.52417C181.052 8.86481 180.569 9.34002 180.216 9.90776C180.884 9.88673 181.54 9.70169 182.121 9.36946C182.314 9.03723 182.554 8.73444 182.827 8.4695C182.852 8.51155 182.882 8.5494 182.915 8.58725C182.726 8.77229 182.558 8.97415 182.407 9.19283C182.625 9.04564 182.827 8.87322 183.012 8.68398C183.05 8.71762 183.088 8.74706 183.13 8.77229C182.865 9.04564 182.562 9.28535 182.23 9.4788C181.898 10.0592 181.713 10.7152 181.692 11.3839C182.259 11.0306 182.735 10.5428 183.075 9.96663C183.075 9.58394 183.13 9.20124 183.235 8.83537C183.277 8.8564 183.323 8.87742 183.37 8.89004C183.298 9.14657 183.252 9.40731 183.231 9.67225C183.344 9.43254 183.437 9.18442 183.504 8.92789C183.55 8.9363 183.601 8.94051 183.647 8.94471C183.555 9.31479 183.412 9.67225 183.218 10.0045C183.218 10.6731 183.391 11.3376 183.706 11.9264C184.021 11.3376 184.19 10.6774 184.194 10.0045H184.198ZM190.864 7.89335C190.519 7.3088 190.027 6.81676 189.442 6.46351C189.093 7.04806 188.605 7.53589 188.029 7.89335C188.605 8.24661 189.089 8.73865 189.442 9.3232C190.027 8.96994 190.519 8.47791 190.864 7.89335ZM182.28 2.16134C182.865 2.5104 183.357 2.99823 183.71 3.57437C184.064 2.99823 184.556 2.5146 185.14 2.16134C184.787 1.57679 184.295 1.08475 183.71 0.739908C183.126 1.08475 182.634 1.57258 182.28 2.16134ZM185.14 13.6254C184.556 13.2763 184.064 12.7885 183.71 12.2123C183.357 12.7885 182.865 13.2721 182.28 13.6254C182.634 14.2099 183.126 14.702 183.71 15.0468C184.295 14.702 184.787 14.2099 185.14 13.6254Z" fill="url(#paint0_radial_8306_3142)"/>
</g>
<defs>
<radialGradient id="paint0_radial_8306_3142" cx="0" cy="0" r="1" gradientUnits="userSpaceOnUse" gradientTransform="translate(183.647 7.80504) scale(7.09878 7.09877)">
<stop offset="0.1" stop-color="white"/>
<stop offset="0.5" stop-color="#FCD71A"/>
<stop offset="1" stop-color="#F5861F"/>
</radialGradient>
<clipPath id="clip0_8306_3142">
<rect width="270.044" height="80" fill="white"/>
</clipPath>
</defs>
</svg>
